<?xml version="1.0" standalone="no"?>
<!DOCTYPE svg PUBLIC "-//W3C//DTD SVG 20010904//EN"
 "http://www.w3.org/TR/2001/REC-SVG-20010904/DTD/svg10.dtd">
<svg version="1.0" xmlns="http://www.w3.org/2000/svg"
 width="400.000000pt" height="263.000000pt" viewBox="0 0 400.000000 263.000000"
 preserveAspectRatio="xMidYMid meet">

<g transform="translate(0.000000,263.000000) scale(0.100000,-0.100000)"
fill="#000000" stroke="none">
<path d="M1220 1335 l0 -455 243 0 c272 0 305 6 374 65 24 20 50 56 63 87 43
99 9 233 -73 289 -17 12 -34 24 -36 26 -3 2 9 18 27 36 42 44 64 100 64 167 0
95 -50 177 -134 221 -34 17 -61 19 -283 19 l-245 0 0 -455z m478 325 c86 -53
81 -195 -10 -250 -29 -18 -51 -20 -185 -20 l-153 0 0 145 0 145 158 0 c140 0
161 -2 190 -20z m27 -392 c33 -15 62 -63 70 -113 8 -53 -27 -120 -75 -146 -30
-16 -58 -19 -202 -19 l-168 0 0 145 0 145 175 0 c112 0 183 -4 200 -12z"/>
<path d="M2050 1335 l0 -455 194 0 c162 0 204 3 255 19 194 60 301 216 301
436 0 228 -128 401 -328 444 -29 6 -136 11 -237 11 l-185 0 0 -455z m447 315
c129 -55 197 -208 173 -383 -17 -117 -79 -207 -173 -247 -43 -19 -75 -24 -189
-28 l-138 -5 0 348 0 348 138 -5 c113 -4 146 -9 189 -28z"/>
</g>
</svg>
